# xmcd CD database file
#
# Track frame offsets:
#	150
#	23564
#	50739
#	86464
#	118434
#	152547
#	186473
#	206022
#	241747
#
# Disc length: 3522 seconds
#
# Revision: 0
# Processed by: cddbd v1.5.1PL0 Copyright (c) Steve Scherf et al.
# Submitted via: CDex 1.51
#
DISCID=750dc009
DTITLE=Horns and Things - Da Boss
DYEAR=2004
DGENRE=Jazz
TTITLE0=Da Boss
TTITLE1=You
TTITLE2=Jamila
TTITLE3=A Night inTunesia
TTITLE4=t Let This Be The Last time
TTITLE5=People Make The World Go Round
TTITLE6=Girl
TTITLE7=Jamila(Reprise)
TTITLE8=Zekie Man
EXTD=YEAR: 2004
EXTT0=
EXTT1=
EXTT2=
EXTT3=
EXTT4=
EXTT5=
EXTT6=
EXTT7=
EXTT8=
PLAYORDER=
